<svg width="640" height="200" xmlns="http://www.w3.org/2000/svg">
 <!-- Created with SVG-edit - http://svg-edit.googlecode.com/ -->
 <g>
  <title>Layer 1</title>
  <path d="m27,145c0,-1 0,-3 0,-4c0,-2 1.497555,-4.925797 2,-10c0.39415,-3.98053 2,-10 4,-16c2,-6 3.691246,-12.0718 5,-17c1.62331,-6.112679 2.881336,-12.025208 4,-17c0.90456,-4.022659 0.593987,-7.504326 3,-12c1.334618,-2.493752 2,-4 2,-6c0,-2 0,0 1,2c1,2 2,6 2,9c0,3 0.610649,8.159279 2,11c1.584103,3.238922 3.917606,5.386871 5,8c0.382683,0.923882 1,1 2,1c1,0 2.103405,0.093674 3,-1c2.285881,-2.788322 6,-6 9,-9c4,-4 8.729622,-9.228851 13,-14c3.772675,-4.21508 6.372017,-6.385098 10,-9c1.14727,-0.826904 3,-2 3,0c0,3 1,9 1,15c0,7 0.499031,14.953323 1,23c0.310684,4.990341 1.116898,11.967651 3,19c2.133003,7.965569 3,12 4,17l1,3l1,0l0,1" id="svg_5" stroke-width="5" stroke="#000000" fill="none"/>
  <path d="m131,111c-1,0 -2,0 -3,0c-1,0 -2.076118,-0.382683 -3,0c-1.306564,0.541199 -2,1 -3,2c-1,1 -2.617317,2.076118 -3,3c-1.08239,2.613129 -2,3 -2,5c0,1 0,2 0,4c0,2 2.474266,3.149353 3,4c1.175568,1.902115 3,2 5,3c2,1 3.823746,2.486252 6,3c2.919754,0.689255 6.878555,1.493454 10,2c2.961258,0.480545 6,1 9,1c3,0 6,0 8,0c2,0 3.458801,-0.693436 4,-2c0.38269,-0.923874 1,-3 1,-5c0,-1 0,-2 0,-4c0,-2 0.38269,-3.076118 0,-4c-1.082397,-2.613129 -3,-3 -4,-4c-2,-2 -3.852737,-2.173096 -5,-3c-1.813995,-1.307449 -4.823746,-2.486259 -7,-3c-1.946503,-0.459503 -3.823746,-0.486259 -6,-1c-1.946503,-0.459503 -4.012909,0.160179 -5,0c-3.121445,-0.506538 -4,-1 -6,-1c-1,0 -4,0 -5,-1l-1,0l-1,0l-1,0" id="svg_10" stroke-width="5" stroke="#000000" fill="none"/>
  <path d="m177,66c1,2 1,4 1,6c0,3 -0.295609,5.014603 0,8c0.502441,5.074203 1.633453,8.022476 2,11c0.503769,4.092216 2,8 2,13c0,4 1,8 1,13c0,3 0,6 0,8c0,2 0,3 0,5c0,1 0.458801,1.693436 1,3c0.38269,0.923874 0.474274,2.149353 1,3c1.175568,1.902115 1.906326,2.103409 3,3c2.78833,2.285873 5.152237,3.234634 7,4c1.306564,0.541199 3,2 4,2c2,0 3,0 4,0c2,0 3.026749,0.229752 4,0c2.176254,-0.513748 3.346191,-0.70546 5,-3c1.307449,-1.813995 1.234634,-3.152237 2,-5c0.541199,-1.306564 2,-2 2,-3c0,-2 0,-3 0,-4c0,-2 -0.458801,-2.693436 -1,-4c-0.38269,-0.923882 -1.486252,-1.823746 -2,-4c-0.229752,-0.973251 -0.234634,-2.152245 -1,-4c-0.541199,-1.306564 -2.824432,-2.097885 -4,-4c-0.525726,-0.850655 -0.693436,-1.458801 -2,-2c-0.923874,-0.382683 -2.026749,-0.770248 -3,-1c-2.176254,-0.513741 -3.012909,-0.839821 -4,-1c-3.121445,-0.506538 -4,-1 -5,-1c-2,0 -3,-1 -4,-1c-2,0 -4,-1 -6,-1l-1,0l-1,0" id="svg_12" stroke-width="5" stroke="#000000" fill="none"/>
  <path d="m227,107c0,1 0,3 0,4c0,1 0.234634,3.152245 1,5c0.541199,1.306564 1.234634,4.152245 2,6c0.541199,1.306564 1,3 2,4c1,1 0.770248,2.026749 1,3c0.513748,2.176254 2,2 2,3c0,2 0.234634,2.152237 1,4c0.541199,1.306564 2,2 2,3l0,1" id="svg_13" stroke-width="5" stroke="#000000" fill="none"/>
  <path d="m220,89" id="svg_14" stroke-width="5" stroke="#000000" fill="none"/>
  <path d="m241,69c0,1 1,2 1,4c0,2 0,5 0,7c0,2 0.519455,5.038734 1,8c0.506546,3.121445 1.496231,7.907784 2,12c0.488739,3.970032 0.881332,11.025208 2,16c0.904556,4.022659 0.130646,7.128723 1,10c1.04483,3.450851 3,5 3,6l0,2l1,1l1,0" id="svg_15" stroke-width="5" stroke="#000000" fill="none"/>
  <path d="m219,92c1,0 2,0 3,0c1,0 2,0 3,0c1,0 2.076126,0.382683 3,0c1.306564,-0.541199 1,-2 1,-3c0,-1 0,-2 0,-3c0,-1 -1.076126,-0.617317 -2,-1c-1.306564,-0.541199 -2,-1 -3,-1c-1,0 -2,0 -3,0c-1,0 -2.292892,0.292892 -3,1c-0.707108,0.707108 -1,1 -1,2l-1,1l0,1l1,1" id="svg_19" stroke-width="5" stroke="#000000" fill="none"/>
  <path d="m269,116c1,0 1.292908,0.292892 2,1c1.414215,1.414215 4.026764,0.770248 5,1c2.176239,0.513741 3,1 4,1c2,0 4,0 5,0c1,0 4.585785,1.414215 6,0c0.707092,-0.707108 2.076111,-0.617317 3,-1c1.306549,-0.541199 2.458801,-1.693436 3,-3c0.38269,-0.923882 0.525726,-2.149345 0,-3c-1.175568,-1.902115 -2.458801,-1.693436 -3,-3c-0.38269,-0.923882 -0.0979,-1.824432 -2,-3c-0.850647,-0.525734 -1,-1 -3,-2c-2,-1 -3.292908,-0.292892 -4,-1c-0.707092,-0.707108 -1,-1 -3,-1c-1,0 -3,0 -4,0c-1,0 -2.152252,-0.765366 -4,0c-1.306549,0.541199 -2.585785,-0.414215 -4,1c-0.707092,0.707108 -1.186005,0.692551 -3,2c-1.147278,0.826904 -1.61731,1.076118 -2,2c-0.541199,1.306564 -1.292908,2.292892 -2,3c-0.707092,0.707108 -1,1 -1,2c0,1 0,2 0,3c0,1 -0.292908,1.292892 -1,2c-1.414215,1.414215 0,3 0,4c0,1 1.292908,2.292892 2,3c0.707092,0.707108 0.61731,1.076118 1,2c0.541199,1.306564 2.585785,-0.414215 4,1c0.707092,0.707108 0.823761,1.486252 3,2c0.973236,0.229752 2.823761,1.486252 5,2c1.946503,0.459503 4,0 6,0c2,0 2.823761,0.486252 5,1c0.973236,0.229752 1.823761,0.486252 4,1c0.973236,0.229752 2,0 3,0l1,0" id="svg_26" stroke-width="5" stroke="#000000" fill="none"/>
  <path d="m347,77c1,1 1.486267,2.823746 2,5c0.229767,0.973251 0.493469,2.878555 1,6c0.48056,2.961266 -0.320374,5.025826 0,7c0.506531,3.121445 1.51944,5.038734 2,8c0.506531,3.121445 1.486267,3.823746 2,6c0.68927,2.919746 0,4 0,5c0,2 0.61731,3.076118 1,4c0.541199,1.306564 2.076111,1.382683 3,1c1.306549,-0.541199 1,-3 3,-5c1,-1 3,-5 5,-7c2,-2 3.21167,-4.714119 6,-7c2.187347,-1.79319 4,-5 6,-7c2,-2 3.520172,-5.323669 5,-7c2.386169,-2.703003 4,-4 7,-5l2,-2l1,-1l1,-1" id="svg_30" stroke-width="5" stroke="#000000" fill="none"/>
  <path d="m366,86c0,0 0,1 0,2c0,1 0.173096,1.85273 1,3c1.307465,1.813995 0.61731,3.076118 1,4c0.541199,1.306564 1.770233,2.026749 2,3c0.513733,2.176254 2,3 2,4c0,1 2,3 2,4c0,1 1.61731,2.076118 2,3c0.541199,1.306564 1,2 2,3c1,1 1.61731,2.076118 2,3c0.541199,1.306564 2,2 2,4c0,1 0.292908,2.292892 1,3c0.707092,0.707108 2.076111,1.382683 3,1c1.306549,-0.541199 1.418854,-3.418861 3,-5c1.581146,-1.581139 2,-2 5,-5c1,-1 2.705475,-4.346191 5,-6c1.813995,-1.307449 4.323669,-4.520164 6,-6c2.703003,-2.386162 4.4505,-4.450493 7,-7c2.5495,-2.549507 3,-4 5,-6l1,-2l1,-1l0,-1" id="svg_31" stroke-width="5" stroke="#000000" fill="none"/>
  <path d="m438,101c-1,0 -3,0 -4,0c-2,0 -3,0 -4,0c-1,0 -3,1 -4,1c-2,0 -4,0 -5,1c-2,2 -3.796997,2.2565 -5,3c-2.690002,1.662506 -3.0979,2.824432 -5,4c-0.850647,0.525734 -3.486267,0.823746 -4,3c-0.229767,0.973251 -1,2 -1,3c0,1 0,2 1,3c1,1 2.026764,1.770248 3,2c2.176239,0.513741 2.823761,1.486259 5,2c0.973236,0.229752 2,1 4,1c1,0 2,0 5,0c1,0 3.076111,0.382683 4,0c1.306549,-0.541199 2.076111,-0.617317 3,-1c2.613129,-1.08239 2.61731,-2.076118 3,-3c0.541199,-1.306564 0.948547,-1.298698 2,-3c1.175568,-1.902115 1.61731,-2.076118 2,-3c0.541199,-1.306564 1,-2 1,-3c0,-1 0,-2 0,-3c0,-1 0,0 0,2c0,2 -0.229767,3.026749 0,4c0.513733,2.176254 1.61731,3.076118 2,4c0.541199,1.306564 1.0979,2.824432 3,4c0.850647,0.525734 3,1 3,2l2,0l0,1l1,0" id="svg_32" stroke-width="5" stroke="#000000" fill="none"/>
  <path d="m221,25c0,1 -0.386871,1.917608 -3,3c-1.847763,0.765368 -1.852737,1.173096 -3,2c-1.813995,1.307451 -3.906326,3.103405 -5,4c-2.78833,2.285881 -4.21167,1.714119 -7,4c-1.093674,0.896595 -3.06601,0.877659 -5,2c-3.118484,1.809723 -4,3 -5,3l-1,0l0,1l0,-1" id="svg_34" stroke-width="5" stroke="#000000" fill="none"/>
  <path d="m195,21c2,1 2.292892,1.292892 3,2c0.707108,0.707108 1,2 2,3c1,1 2.692551,2.186007 4,4c0.826904,1.14727 3,2 4,3c1,1 2.292892,1.292892 3,2c0.707108,0.707108 0.693436,1.458805 2,2c0.923874,0.382683 1.770248,0.026752 2,1c0.513748,2.17625 2,3 2,4l0,1l1,0" id="svg_35" stroke-width="5" stroke="#000000" fill="none"/>
  <path d="m237,31c1,0 2.824432,-0.097887 4,-2c0.525726,-0.850651 0.61731,-1.07612 1,-2c0.541199,-1.306562 0.61731,-2.07612 1,-3c0.541199,-1.306562 1,-3 1,-4c0,-1 0.306564,-2.458803 -1,-3c-0.923874,-0.382683 -1.823746,-1.486257 -4,-2c-0.973251,-0.229753 -3,-1 -4,-1c-1,0 -2,0 -4,0c-1,0 -2.292892,0.292893 -3,1c-0.707108,0.707107 -0.692551,1.186007 -2,3c-0.826904,1.14727 -1,2 -1,4c0,1 1,1 2,2c1,1 1.693436,2.458803 3,3c0.923874,0.382683 1.292892,0.292892 2,1c0.707108,0.707108 1.076126,0.617317 2,1c1.306564,0.541197 2.474274,3.149349 3,4c1.175568,1.902115 2,3 2,4c0,1 0,2 0,3c0,1 0,3 0,5c0,1 0.525726,2.149349 0,3c-1.175568,1.902115 -2.292892,1.292892 -3,2c-0.707108,0.707108 -2,1 -3,1c-1,0 -2.076126,0.382683 -3,0c-1.306564,-0.541195 -1.61731,-2.076122 -2,-3c-0.541199,-1.306564 -1.486252,-1.82375 -2,-4c-0.229752,-0.973248 0,-2 0,-3c0,-1 -0.38269,-2.076122 0,-3c0.541199,-1.306564 2.292892,-1.292892 3,-2c0.707108,-0.707108 1.186005,-0.692547 3,-2c1.147263,-0.826904 2.292892,-0.292892 3,-1c0.707108,-0.707108 1,-2 2,-2l1,0" id="svg_36" stroke-width="5" stroke="#000000" fill="none"/>
  <path d="m275,30c1,1 1,3 1,4c0,2 0.486267,2.82375 1,5c0.459503,1.946499 0,4 0,5c0,1 1.173096,1.85273 2,3c1.307465,1.813992 2.292908,2.707108 3,2c0.707092,-0.707108 0.770233,-2.026752 1,-3c1.027496,-4.352501 2.420441,-5.085815 3,-7c1.04483,-3.450844 2.710205,-5.042908 3,-6c1.04483,-3.450844 2,-4 2,-5l1,-1l1,0" id="svg_37" stroke-width="5" stroke="#000000" fill="none"/>
  <path d="m306,30c-1,0 -2,0 -3,0c-1,0 -2,1 -3,1c-1,0 -1.692535,1.186008 -3,3c-0.826904,1.14727 -1,2 -1,4c0,1 -0.707092,2.292892 0,3c0.707092,0.707108 2.076111,0.617317 3,1c1.306549,0.541195 1.292908,1.292892 2,2c1.414215,1.414215 2.61731,1.076122 3,2c0.541199,1.306564 1,2 1,3c0,1 -1,1 -2,2c-1,1 -2.076111,0.617317 -3,1c-1.306549,0.541195 -2,1 -3,1c-1,0 -2,0 -3,0c-2,0 -3,0 -4,0l0,-1" id="svg_38" stroke-width="5" stroke="#000000" fill="none"/>
  <path d="m340,17c1,0 1.486267,1.82375 2,4c0.459503,1.946499 0,4 0,6c0,4 1,6 1,11c0,3 -0.031464,5.412075 2,9c0.696777,1.230648 1,3 2,3c1,0 2,0 3,-1c1,-1 2.61731,-4.076122 3,-5c1.082397,-2.613125 3.283264,-4.567245 5,-6c3.838745,-3.203735 3.877655,-5.066002 5,-7c1.809723,-3.118477 3,-3 3,-4l1,-1l1,-1l1,0" id="svg_39" stroke-width="5" stroke="#000000" fill="none"/>
  <path d="m354,20c0,1 1,2 1,5c0,2 1,5 1,8c0,2 1.493469,4.878555 2,8c0.320374,1.974174 0.458801,2.693436 1,4c0.38269,0.923878 0.458801,1.693436 1,3c0.38269,0.923878 0.292908,2.292892 1,3c0.707092,0.707108 2.076111,0.382683 3,0c1.306549,-0.541195 3,-2 4,-3c1,-1 2.386871,-2.917606 5,-4c0.923889,-0.382683 3.159271,-1.610649 6,-3c3.238922,-1.584103 5.076111,-4.617317 6,-5c3.919678,-1.623589 6,-6 7,-7c2,-2 3,-3 4,-4l1,0l0,-1" id="svg_40" stroke-width="5" stroke="#000000" fill="none"/>
  <path d="m402,26c1,0 2,0 3,0c2,0 3,0 4,0c3,0 4.292908,-0.707108 5,0c0.707092,0.707108 0,2 0,4c0,1 -0.346191,1.705462 -2,4c-1.307465,1.813992 -3.190277,2.881523 -5,6c-1.122345,1.933998 -2,2 -3,3c-1,1 -3,1 -4,2c-1,1 0.693451,2.458805 2,3c1.847748,0.765366 3,1 4,1c1,0 1,1 3,1c2,0 3,0 4,0c1,0 2,0 3,0l1,0l1,0" id="svg_41" stroke-width="5" stroke="#000000" fill="none"/>
  <path d="m434,27c-1,0 -2.693451,0.458803 -4,1c-0.923889,0.382683 -2.486267,0.82375 -3,3c-0.229767,0.973249 -0.692535,3.186008 -2,5c-0.826904,1.14727 -2.458801,4.693436 -3,6c-1.530731,3.695518 0,5 0,6c0,2 0.152252,2.234634 2,3c1.306549,0.541195 2,2 4,2c2,0 3,0 4,0c1,0 3,0 4,0c1,0 2.292908,-1.292892 3,-2c1.414215,-1.414215 3.234619,-2.152241 4,-4c0.541199,-1.306564 2,-4 2,-5c0,-2 0,-4 0,-5c0,-1 0.38269,-3.076122 0,-4c-0.541199,-1.306562 -2,-3 -3,-3c-1,0 -3,-1 -4,-1c-1,0 -2,0 -3,0l-1,0l-1,0l-1,1" id="svg_42" stroke-width="5" stroke="#000000" fill="none"/>
  <path d="m457,30c-2,0 -3.076111,-0.382683 -4,0c-1.306549,0.541197 -3.186005,1.692549 -5,3c-1.147278,0.826904 -4.852722,4.173096 -6,5c-1.813995,1.307453 -3.61731,4.076122 -4,5c-0.541199,1.306564 -2,4 -2,5c0,2 0.076111,2.617317 1,3c2.613129,1.082394 2.852722,2.173096 4,3c1.813995,1.307453 4.309998,1.337494 7,3c1.203003,0.743496 2,1 4,1c1,0 3,0 4,0c1,0 4.042908,0.289783 5,0c3.450836,-1.04483 5.824432,-2.097885 7,-4c0.525726,-0.850651 0.61731,-2.076122 1,-3c1.082397,-2.613125 2,-3 2,-4c0,-3 0,-4 0,-5c0,-1 -0.173096,-1.85273 -1,-3c-1.307465,-1.813992 -0.292908,-3.292892 -1,-4c-0.707092,-0.707108 -1.693451,-0.458805 -3,-1c-1.847748,-0.765366 -2.693451,-0.458805 -4,-1c-1.847748,-0.765366 -4,0 -5,0c-1,0 -2,0 -3,0l-1,0" id="svg_43" stroke-width="5" stroke="#000000" fill="none"/>
  <path d="m488,38c0,1 0,2 0,3c0,1 0.707092,4.292892 0,5c-0.707092,0.707108 -1,3 -1,4c0,1 0,2 0,3c0,1 0,2 0,3l0,1l0,-1" id="svg_44" stroke-width="5" stroke="#000000" fill="none"/>
  <path d="m488,20c1,2 2,2 2,3c0,1 0.38269,2.07612 0,3c-0.541199,1.306562 -2.292908,1.707108 -3,1c-0.707092,-0.707108 -1,-1 -1,-2l0,-1l1,-1l1,1" id="svg_45" stroke-width="5" stroke="#000000" fill="none"/>
  <path d="m457,98c1,0 2,3 2,5c0,2 0,5 0,8c0,3 0,6 0,11c0,2 0,3 0,6c0,1 0,2 0,3c0,1 0,2 0,1c0,-1 0.486267,-2.823746 1,-5c0.229767,-0.973251 0.733063,-4.036285 1,-5c1.556488,-5.619377 4.486267,-6.823746 5,-9c0.459503,-1.946495 1.309998,-2.337494 4,-4c4.812012,-2.973984 4.934143,-5.144295 7,-6c2.92157,-1.210152 5,-2 6,-2l2,0" id="svg_46" stroke-linecap="null" stroke-linejoin="null" stroke-dasharray="null" stroke-width="5" stroke="#000000" fill="none"/>
  <path id="svg_47" d="m708,44l0,0" stroke-linecap="null" stroke-linejoin="null" stroke-dasharray="null" stroke-width="5" stroke="#000000" fill="#ff0000"/>
  <path id="svg_49" d="m498.5625,78.676346l44,0m-21.897949,18.88678l21.500488,21.09697m-21.500488,-21.297905l-20.093323,21.297905m19.991272,-46.4133l0,25.115395m6.681702,-31.898247c0,3.68911 -2.991882,6.679123 -6.681702,6.679123c-3.687256,0 -6.676208,-2.990013 -6.676208,-6.679123c0,-3.688419 2.988953,-6.678944 6.676208,-6.678944c3.689819,0 6.681702,2.990524 6.681702,6.678944z" stroke-linecap="null" stroke-linejoin="null" stroke-dasharray="null" stroke-width="5" stroke="#000000" fill="none"/>
  <path id="svg_50" d="m561.012085,61.232239l52.175293,0m-25.96637,22.396034l25.489685,25.016716m-25.489685,-25.255058l-23.8255,25.255058m23.704224,-55.036469l0,29.78141m7.921814,-37.824951c0,4.374687 -3.545105,7.920601 -7.921814,7.920601c-4.372498,0 -7.917114,-3.545914 -7.917114,-7.920601c0,-4.374077 3.544617,-7.919983 7.917114,-7.919983c4.376709,0 7.921814,3.545906 7.921814,7.919983z" stroke-linecap="null" stroke-linejoin="null" stroke-dasharray="null" stroke-width="5" stroke="#000000" fill="none"/>
  <line id="svg_51" y2="86" x2="537" y1="48" x1="547" stroke-linecap="null" stroke-linejoin="null" stroke-dasharray="null" stroke-width="5" stroke="#f20000" fill="none"/>
  <line id="svg_52" y2="64" x2="566" y1="31" x1="553" stroke-linecap="null" stroke-linejoin="null" stroke-dasharray="null" stroke-width="5" stroke="#00ffff" fill="none"/>
 </g>
</svg>